<svg version="1.2" xmlns="http://www.w3.org/2000/svg" viewBox="0 0 504 216" width="504" height="216"><style>.a{fill:#d7ba52}.b{fill:#e0ddd1}</style><path fill-rule="evenodd" class="a" d="m265 79c-1.1 0-2-0.9-2-2 0-1.1 0.9-2 2-2 1.1 0 2 0.9 2 2 0 1.1-0.9 2-2 2zm7.5-20.5q-3.6 6.6-8 13-12.9-15.6-11-36 1.5-13.9 10-25 1-2 2 0 15.9 22.1 7 48zm19 19q-8 0.2-16-0.5-3.8-0.9-7-3 9.7-13.9 25-20.5 17.7-4.3 35 1.5-13.4 19.7-37 22.5zm-45-18q8 6.5 14 15-7 2.5-14 4-28.5 0.7-45-22.5 3.2-2.1 7-3 20.2-3.3 38 6.5zm4 56q-10.5 10.5-25 14-1.2-25.2 18-41 8.5-6.5 19-9 0.8 20.4-12 36zm18-35q15.6 4.8 26 17 10.3 14.9 9 33-22.4-5.9-32-27-3.8-8-4-17-0.4-3.4 1-6zm-5 9q1 0 2 0 1.1 7.3 4 14 2.8 7 7.5 13 0.1 19.3-12.5 34-12.3-14.6-13-34 10.4-11.4 12-27zm2 0q-1 0-2 0 1-10 2 0zm6.8-22.7q-0.8-0.6-1.6-1.2 3.3-6.6 4.7-13.7 1.8-7.4 1.3-15 10.9-15.9 29.7-20.7 1.7 19-8.8 35.3-15 3.4-25.3 15.3zm-1.6-1.2q0.8 0.6 1.6 1.2-6.5 7.6-1.6-1.2zm-11.6 0.5q-0.8 0.6-1.6 1.2-5.2-5.3-11.5-9-6.4-4-13.8-6-11.5-15.5-10-34.8 18.6 4.5 30.6 19.7-1.7 15.3 6.3 28.9zm-1.6 1.2q0.8-0.6 1.6-1.2 5.1 8.6-1.6 1.2zm-3.8 11q0.3 0.9 0.6 1.9-6.6 3.3-12 8.2-5.8 4.8-10 11.2-18.3 6.2-36.2-1.2 10-16.3 28.2-23 14 6.3 29.4 2.9zm0.6 1.9q-0.3-1-0.6-1.9 9.8-2.2 0.6 1.9zm20.5 0.8q0.2-1 0.5-2 7.3 1.1 14.6 0.2 7.5-0.7 14.6-3.5 18.5 5.3 29 21.6-17.5 7.6-36.3 2.8-7.9-13.2-22.4-19.1zm0.5-2q-0.3 1-0.5 2-9.4-3.8 0.5-2z"/><path class="b" d="m12.6 203h-1.1v-13.5h1.1q0 5.4 3.9 9.3 4 3.8 9.6 3.8 2.3 0 3.7-1.3 1.5-1.4 1.5-3.7 0-2.5-3.3-4.3-1.8-1-6.3-2.9-4.4-2.1-6.2-3.5-3.6-2.8-3.1-7.3 0.4-4.6 3.4-7.1 3-2.6 6.8-2.6 3.8 0 6.9 1.1 3 1 3.4 1 1.2 0 1.2-2.1h1.2v10.7h-1.2q0-4.2-3.1-6.8-3-2.7-7.9-2.7-2.1 0-3.3 1.3-1.2 1.2-1.2 2.7 0 1.5 0.4 2.3 0.4 0.8 1.4 1.5 1 0.7 1.8 1.1 0.7 0.4 2.3 1.1 1.7 0.7 2.4 1 3.1 1.4 3.7 1.7 0.6 0.2 1.7 0.8 1.1 0.6 1.6 1.1 0.6 0.4 1.5 1.1 0.8 0.7 1.3 1.5 0.4 0.7 0.8 1.6 0.8 1.8 0.5 4.3-0.4 4.7-3.5 7.2-3 2.5-8.2 2.5-4.6 0-9.2-2.4-1.6-0.8-2.3-0.8-2.2 0-2.2 2.3zm60.2-16.1v14.9h2.9v1.2h-14.5v-1.2h2.9v-16.2q0-4.1-1.2-5.9-1.3-1.7-3.7-1.7-3.3 0-5.3 3.5v20.3h2.9v1.2h-14.5v-1.2h2.9v-36.5h-2.9v-1.2h11.6v15.2q1.1-1.5 3.4-2.6 2.4-1 5.1-1 10.4 0 10.4 11.2zm38.1 16.1h-11.6v-3.1q-1.1 1.6-3.4 2.7-2.4 1-5.1 1-10.3 0-10.3-11.2v-14.9h-2.9v-1.2h11.6v17.4q0 4.1 1.2 5.9 1.2 1.7 3.7 1.7 3.2 0 5.2-3.5v-20.3h-2.9v-1.2h11.6v25.5h2.9zm27.9-2q-2.1 1.4-4.2 2-2 0.6-4 0.6-1.9 0-3.5-0.7-1.6-0.8-2.6-1.6-0.9-0.9-2.1-1.6-1.2-0.7-2.2-0.7-1.1 0-1.9 1.1-0.7 1.2-0.7 2.9h-1.1v-37.7h-2.9v-1.1h11.6v14.2q0.9-1.5 3-2.4 2.1-0.9 4.5-0.9 4.4 0 7.6 3.9 3.3 3.8 3.3 10.7 0 4.1-1.3 7-1.3 2.9-3.5 4.3zm-13.6-20.8v13.8q0 4.4 1 6.4 1 1.9 3.1 1.9 2.2 0 3.9-3.3 1.7-3.3 1.7-9.2 0-6-1.8-9.1-1.8-3.2-4.2-3.2-2.3 0-3.7 2.7zm52.6 6.7v15h2.9v1.1h-14.5v-1.1h2.9v-16.3q0-4.1-1.2-5.8-1.3-1.8-3.7-1.8-3.3 0-5.3 3.5v20.4h2.9v1.1h-14.5v-1.1h2.9v-36.6h-2.9v-1.1h11.6v15.2q1.1-1.6 3.4-2.6 2.4-1.1 5.1-1.1 10.4 0 10.4 11.2zm35.6 15q-0.5 0.6-2.2 1-1.6 0.4-3.7 0.4-4.8 0-6-2.8-2.9 3-8.9 3-3.2 0-5.2-1.4-2.1-1.6-2.1-4.5 0-3.8 3-5.9 3.1-2.2 10.6-3l2.3-0.3v-2.9q0-5-0.7-6.8-0.8-1.7-3.1-1.7-2.2 0-2.8 0.6-0.6 0.6-0.5 1.4 0.2 0.8 0.6 2.1 0.4 1.2 0.4 2 0 1.8-1.3 3.1-1.2 1.2-3 1.2-1.7 0-3-1.2-1.3-1.3-1.3-3.1 0-3 3.1-5.1 3-2.1 9.1-2.1 6.1 0 8.6 2.4 2.6 2.4 2.6 8.4v10.4q0 3.1 0.8 3.9 0.7 0.8 2.7 0.3zm-20-5.4q0.3 2.2 1.6 3.4 1.3 1.2 3.1 1.2 1.8 0 3.1-1.8v-9.8l-2.1 0.3q-2.6 0.3-4.3 2-1.7 1.7-1.4 4.7zm71.6-9.6v15h2.9v1.2h-14.5v-1.2h2.9v-16.2q0-4.2-1.2-5.9-1.2-1.7-3.6-1.7-1.4 0-2.9 0.8-1.5 0.8-2.5 2.2 0.7 2.1 0.7 5.8v15h2.9v1.2h-15.1v-1.2h3.5v-16.2q0-4.2-1.2-5.9-1.3-1.7-3.7-1.7-3.3 0-5.3 3.4v20.4h2.9v1.2h-14.5v-1.2h2.9v-24.4h-2.9v-1.1h11.6v3q1.1-1.5 3.4-2.6 2.4-1.1 5.1-1.1 6.9 0 9 3.9 1.5-1.8 4-2.8 2.5-1.1 5.3-1.1 10.3 0 10.3 11.2zm61.7-16.3v1.1h-2.9v30.2h2.9v1.2h-14.5v-1.2h2.9v-28l-11.5 29.7h-1.3l-12.9-30.5v28.8h4.7v1.2h-9.3v-1.2h3.5v-30.2h-3.6v-1.1h13l9 21.7 8.4-21.7zm17.5 33q-5.5 0-10-3.6-4.5-3.6-4.5-10.2 0-3.5 1.3-6.3 1.4-2.8 3.5-4.4 2.2-1.6 4.7-2.4 2.5-0.9 5.1-0.9 2.6 0 5.1 0.9 2.6 0.8 4.7 2.4 2.2 1.6 3.5 4.4 1.4 2.8 1.4 6.3 0 3.5-1.4 6.2-1.3 2.7-3.5 4.3-4.4 3.3-9.9 3.3zm-4.3-4q1.3 2.9 4.4 2.9 3.1 0 4.5-3 1.3-2.9 1.3-9.7 0-6.9-1.3-9.8-1.4-3-4.5-3-3.1 0-4.4 3-1.3 2.9-1.3 9.8 0 6.8 1.3 9.8zm46.9 1.4q-2.1 1.4-4.2 2-2 0.6-4 0.6-1.9 0-3.5-0.7-1.6-0.8-2.6-1.6-0.9-0.9-2.1-1.5-1.2-0.8-2.2-0.8-1.1 0-1.9 1.2-0.7 1.1-0.7 2.9h-1.1v-37.7h-2.9v-1.2h11.6v14.3q0.9-1.6 3-2.5 2.1-0.9 4.5-0.9 4.4 0 7.6 3.9 3.3 3.8 3.3 10.7 0 4.1-1.3 7-1.3 2.9-3.5 4.3zm-13.6-20.8v13.8q0 4.4 1 6.4 1 1.9 3.1 1.9 2.2 0 3.9-3.2 1.7-3.3 1.7-9.3 0-5.9-1.8-9.1-1.8-3.2-4.1-3.2-2.4 0-3.8 2.7zm33.7-3.8v25.5h2.9v1.2h-14.5v-1.2h2.9v-24.4h-2.3v-1.1zm0.5-7.7q0 2.1-1.5 3.6-1.4 1.5-3.6 1.5-2.1 0-3.6-1.5-1.5-1.5-1.5-3.6 0-2.1 1.5-3.6 1.5-1.5 3.6-1.5 2.2 0 3.6 1.5 1.5 1.5 1.5 3.6zm18.5-4.5v37.7h2.9v1.2h-14.5v-1.2h2.9v-36.5h-2.9v-1.2zm32 27.3h-17.5q0.6 10.2 8 10.2 1.9 0 4.4-1 2.6-0.9 3.7-2.6l0.9 0.6q-1.3 2.2-4.4 3.5-3.1 1.4-6.1 1.4-3.1 0-5.5-0.5-2.4-0.7-4.8-2.1-2.3-1.5-3.6-4.4-1.3-2.9-1.3-7 0-7 3.9-10.4 3.9-3.4 9.4-3.4 5.6 0 9.2 3.7 3.7 3.7 3.7 12zm-17.5-1.8v0.6h9.4q0-5.3-1.1-9.3-1.1-4-3.6-4-2.5 0-3.6 3.8-1.1 3.9-1.1 8.9zm34.7 12.9q6 0 6-3.3 0-1.9-2.1-3-2.1-1.2-5-2-3-0.8-5.9-1.7-2.8-1-4.8-3.2-1.8-2.1-1.5-5.6 0.4-3.5 3.6-5.7 3.2-2.3 7.9-2.3 4.8 0 7.7 1.5 2.9 1.5 3.2 4.1 0.3 1.5-0.5 2.9-0.7 1.3-2.4 1.4-1.6 0-2.7-0.9-1-0.9-1-2.2 0.1-1.2 0.9-2.1 0.9-1 0.9-1.6 0-1-1.9-1.4-1.9-0.5-4.4-0.5-2.4 0-4 1.1-1.5 1.1-1.5 2.7 0 1.6 1.9 2.8 2 1.1 4.7 1.9 2.8 0.7 5.6 1.6 2.7 0.9 4.7 2.9 1.9 1.9 1.9 4.9 0 4-2.8 6.5-2.9 2.4-8.6 2.4-5.7 0-9.3-1.8-3.6-1.7-3.9-4.4-0.3-1.6 0.5-3 0.8-1.3 2.4-1.3 1.6-0.1 2.6 0.8 1.1 1 1.1 2.2-0.1 1.2-0.9 2.2-0.9 0.9-0.9 1.5 0 1.1 2.7 1.9 2.7 0.7 5.8 0.7z"/></svg>